Parnassus 2009 720p iTALiAN BluRay DD5.1 x264-AleX

General
File name : Parnassus 2009 720p BluRay DD5.1 x264-AleX
Format : Matroska
File size : 4.37 GiB
Duration : 2h 2mn
Overall bit rate : 5 112 Kbps
Movie name : Parnassus (2009)
Encoded date : UTC 2010-02-05 09:44:50
Writing application : mkvmerge v3.1.0 ('Happy up here') built on Jan 19 2010 12:09:24
Writing library : libebml v0.7.9 + libmatroska v0.8.1

Video
ID : 1
Format : AVC
Format/Info : Advanced Video Codec
Format profile : High@L4.1
Format settings, CABAC : Yes
Format settings, ReFrames : 5 frames
Muxing mode : Container profile=Unknown@4.1
Codec ID : V_MPEG4/ISO/AVC
Duration : 2h 2mn
Bit rate : 4 370 Kbps
Nominal bit rate : 4 471 Kbps
Width : 1 280 pixels
Height : 692 pixels
Display aspect ratio : 1.850
Frame rate : 23.976 fps
Resolution : 8 bits
Colorimetry : 4:2:0
Scan type : Progressive
Bits/(Pixel*Frame) : 0.206
Stream size : 3.74 GiB (85%)
Title : Video 720p BluRay x264
Writing library : x264 core 84 r1416kGIT fcf70c2

Encoding settings
cabac=1 / ref=5 / deblock=1:-3:-3 / analyse=0x3:0x113 / me=umh / subme=8 / psy=1 /
psy_rd=1.0:0.0 / mixed_ref=1 / me_range=24 / chroma_me=1 / trellis=2 / 8x8dct=1 /
cqm=0 / deadzone=21,11 / fast_pskip=0 / chroma_qp_offset=-2 / threads=12 / sliced_threads=0 /
nr=0 / decimate=1 / mbaff=0 / constrained_intra=0 / bframes=4 / b_pyramid=2 /
b_adapt=2 / b_bias=0 / direct=3 / wpredb=1 / wpredp=2 / keyint=250 / keyint_min=25 /
scenecut=40 / intra_refresh=0 / rc_lookahead=50 / rc=2pass / mbtree=1 / bitrate=4471 /
ratetol=1.0 / qcomp=0.60 / qpmin=10 / qpmax=51 / qpstep=4 /
cplxblur=20.0 / qblur=0.5 / ip_ratio=1.40 / aq=1:0.80

Audio
ID : 2
Format : AC-3
Format/Info : Audio Coding 3
Codec ID : A_AC3
Duration : 2h 2mn
Bit rate mode : Constant
Bit rate : 640 Kbps
Channel(s) : 6 channels
Channel positions : Front: L C R, Surround: L R, LFE
Sampling rate : 48.0 KHz
Stream size : 561 MiB (13%)
Title : Italian DD5.1 @ 640 Kbps
Language : Italian

Text
ID : 3
Format : UTF-8
Codec ID : S_TEXT/UTF8
Codec ID/Info : UTF-8 Plain Text
Title : Italian Subs (Forced)
Language : Italian